<?xml version="1.0" encoding="UTF-8"?>
<svg id="Layer_2" data-name="Layer 2" xmlns="http://www.w3.org/2000/svg" xmlns:xlink="http://www.w3.org/1999/xlink" viewBox="0 0 1248.37 370.65">
  <defs>
    <style>
      .cls-1 {
        letter-spacing: .33em;
      }

      .cls-2 {
        font-family: NexaRegular, NexaRegular;
        font-size: 49.34px;
      }

      .cls-2, .cls-3 {
        fill: #383838;
      }

      .cls-3 {
        font-family: Poppins-Bold, Poppins;
        font-size: 193.65px;
        font-weight: 700;
        letter-spacing: -.02em;
      }

      .cls-4 {
        fill: url(#linear-gradient);
      }

      .cls-4, .cls-5, .cls-6 {
        stroke-width: 0px;
      }

      .cls-5 {
        fill: #fff;
      }

      .cls-7 {
        letter-spacing: .36em;
      }

      .cls-6 {
        fill: #b72196;
      }
    </style>
    <linearGradient id="linear-gradient" x1="1941.83" y1="32.91" x2="1941.83" y2="372.91" gradientTransform="translate(-1771.83)" gradientUnits="userSpaceOnUse">
      <stop offset="0" stop-color="#81b539"/>
      <stop offset="1" stop-color="#476e1d"/>
    </linearGradient>
  </defs>
  <g id="Layer_1-2" data-name="Layer 1">
    <g>
      <g>
        <g>
          <g>
            <g>
              <path class="cls-6" d="m340,200.64c0,55.53-26.62,104.83-67.79,135.85V86.87h67.72v108.79c.05,1.65.07,3.32.07,4.98Z"/>
              <rect class="cls-6" x="121.81" y="86.87" width="96.38" height="90.77"/>
              <path class="cls-6" d="m67.78,86.87v249.63C26.61,305.47,0,256.17,0,200.64c0-1.66.02-3.33.07-4.98v-108.79h67.71Z"/>
              <path class="cls-6" d="m218.18,231.66v90.86c0,26.41-21.28,48.05-47.69,48.12-.17,0-.33,0-.5,0s-.33,0-.5,0c-26.41-.08-47.69-21.72-47.69-48.12v-90.86h96.38Z"/>
            </g>
            <g>
              <path class="cls-6" d="m121.81,27.01v59.76h-54.02V27.01c0-14.92,12.09-27.01,27.01-27.01h0c14.92,0,27.01,12.09,27.01,27.01Z"/>
              <path class="cls-6" d="m272.21,27.01v59.76h-54.02V27.01c0-14.92,12.09-27.01,27.01-27.01h0c14.92,0,27.01,12.09,27.01,27.01Z"/>
            </g>
          </g>
          <g>
            <g>
              <g>
                <path class="cls-4" d="m340,200.64c0,55.53-26.62,104.83-67.79,135.85V86.87h67.72v108.79c.05,1.65.07,3.32.07,4.98Z"/>
                <rect class="cls-4" x="121.81" y="86.87" width="96.38" height="90.77"/>
                <path class="cls-4" d="m67.78,86.87v249.63C26.61,305.47,0,256.17,0,200.64c0-1.66.02-3.33.07-4.98v-108.79h67.71Z"/>
                <path class="cls-4" d="m218.18,231.66v90.86c0,26.41-21.28,48.05-47.69,48.12-.17,0-.33,0-.5,0s-.33,0-.5,0c-26.41-.08-47.69-21.72-47.69-48.12v-90.86h96.38Z"/>
              </g>
              <g>
                <path class="cls-4" d="m340,200.64c0,55.53-26.62,104.83-67.79,135.85V86.87h67.72v108.79c.05,1.65.07,3.32.07,4.98Z"/>
                <rect class="cls-4" x="121.81" y="86.87" width="96.38" height="90.77"/>
                <path class="cls-4" d="m67.78,86.87v249.63C26.61,305.47,0,256.17,0,200.64c0-1.66.02-3.33.07-4.98v-108.79h67.71Z"/>
                <path class="cls-4" d="m218.18,231.66v90.86c0,26.41-21.28,48.05-47.69,48.12-.17,0-.33,0-.5,0s-.33,0-.5,0c-26.41-.08-47.69-21.72-47.69-48.12v-90.86h96.38Z"/>
              </g>
              <g>
                <path class="cls-4" d="m340,200.64c0,55.53-26.62,104.83-67.79,135.85V86.87h67.72v108.79c.05,1.65.07,3.32.07,4.98Z"/>
                <rect class="cls-4" x="121.81" y="86.87" width="96.38" height="90.77"/>
                <path class="cls-4" d="m67.78,86.87v249.63C26.61,305.47,0,256.17,0,200.64c0-1.66.02-3.33.07-4.98v-108.79h67.71Z"/>
                <path class="cls-4" d="m218.18,231.66v90.86c0,26.41-21.28,48.05-47.69,48.12-.17,0-.33,0-.5,0s-.33,0-.5,0c-26.41-.08-47.69-21.72-47.69-48.12v-90.86h96.38Z"/>
              </g>
            </g>
            <g>
              <g>
                <g>
                  <path class="cls-4" d="m121.81,27.01v59.76h-54.02V27.01c0-14.92,12.09-27.01,27.01-27.01h0c14.92,0,27.01,12.09,27.01,27.01Z"/>
                  <path class="cls-4" d="m121.81,27.01v59.76h-54.02V27.01c0-14.92,12.09-27.01,27.01-27.01h0c14.92,0,27.01,12.09,27.01,27.01Z"/>
                </g>
                <g>
                  <path class="cls-4" d="m272.21,27.01v59.76h-54.02V27.01c0-14.92,12.09-27.01,27.01-27.01h0c14.92,0,27.01,12.09,27.01,27.01Z"/>
                  <path class="cls-4" d="m272.21,27.01v59.76h-54.02V27.01c0-14.92,12.09-27.01,27.01-27.01h0c14.92,0,27.01,12.09,27.01,27.01Z"/>
                </g>
              </g>
              <g>
                <g>
                  <path class="cls-4" d="m121.81,27.01v59.76h-54.02V27.01c0-14.92,12.09-27.01,27.01-27.01h0c14.92,0,27.01,12.09,27.01,27.01Z"/>
                  <path class="cls-4" d="m121.81,27.01v59.76h-54.02V27.01c0-14.92,12.09-27.01,27.01-27.01h0c14.92,0,27.01,12.09,27.01,27.01Z"/>
                </g>
                <g>
                  <path class="cls-4" d="m272.21,27.01v59.76h-54.02V27.01c0-14.92,12.09-27.01,27.01-27.01h0c14.92,0,27.01,12.09,27.01,27.01Z"/>
                  <path class="cls-4" d="m272.21,27.01v59.76h-54.02V27.01c0-14.92,12.09-27.01,27.01-27.01h0c14.92,0,27.01,12.09,27.01,27.01Z"/>
                </g>
              </g>
              <g>
                <g>
                  <path class="cls-4" d="m121.81,27.01v59.76h-54.02V27.01c0-14.92,12.09-27.01,27.01-27.01h0c14.92,0,27.01,12.09,27.01,27.01Z"/>
                  <path class="cls-4" d="m121.81,27.01v59.76h-54.02V27.01c0-14.92,12.09-27.01,27.01-27.01h0c14.92,0,27.01,12.09,27.01,27.01Z"/>
                </g>
                <g>
                  <path class="cls-4" d="m272.21,27.01v59.76h-54.02V27.01c0-14.92,12.09-27.01,27.01-27.01h0c14.92,0,27.01,12.09,27.01,27.01Z"/>
                  <path class="cls-4" d="m272.21,27.01v59.76h-54.02V27.01c0-14.92,12.09-27.01,27.01-27.01h0c14.92,0,27.01,12.09,27.01,27.01Z"/>
                </g>
              </g>
            </g>
          </g>
        </g>
        <path class="cls-5" d="m272.21,86.87v210.02c-.96,1.02-1.93,2.03-2.93,3.03-12.9,12.9-27.92,23.03-44.64,30.1-2.14.91-4.28,1.75-6.45,2.54v-100.9h-96.38v100.9c-2.16-.79-4.31-1.64-6.45-2.54-16.72-7.07-31.74-17.2-44.64-30.1-.99-1-1.97-2.01-2.93-3.03V86.87h54.02v90.77h96.38v-90.77h54.02Z"/>
      </g>
      <text class="cls-3" transform="translate(386.96 220.95) scale(1.04 1)"><tspan x="0" y="0">Heritage</tspan></text>
      <text class="cls-2" transform="translate(396.38 279.36)"><tspan class="cls-7" x="0" y="0">CHARGE POIN</tspan><tspan class="cls-1" x="546.78" y="0">T</tspan></text>
    </g>
  </g>
</svg>